<?xml version="1.0" encoding="utf-8"?><!-- Uploaded to: SVG Repo, www.svgrepo.com, Generator: SVG Repo Mixer Tools -->
<svg width="800px" height="800px" viewBox="0 0 64 64" xmlns="http://www.w3.org/2000/svg" stroke-width="3" stroke="#000000" fill="none"><path d="M13.4,51V46.21s4.83-.24,4.83-4.83V26.1s-.05-12.67,13.63-12.67c12.06,0,15,7,15,12.21V42.23s-.36,4,4.8,4V51Z"/><path d="M36.24,13.79V12.47a3.74,3.74,0,0,0-7.48,0v1.2"/><path d="M36.33,51a4.57,4.57,0,0,1-9.13,0"/><path d="M50.5,33.49A4.67,4.67,0,0,1,52,41.08"/><path d="M53.3,30a8,8,0,0,1,2.59,13"/><path d="M14,33.74a4.66,4.66,0,0,0-1.51,7.59"/><path d="M11.17,30.26a8,8,0,0,0-2.59,13"/></svg>