<?xml version="1.0" standalone="no"?>
<!DOCTYPE svg PUBLIC "-//W3C//DTD SVG 20010904//EN"
 "http://www.w3.org/TR/2001/REC-SVG-20010904/DTD/svg10.dtd">
<svg version="1.0" xmlns="http://www.w3.org/2000/svg"
 width="500.000000pt" height="500.000000pt" viewBox="0 0 500.000000 500.000000"
 preserveAspectRatio="xMidYMid meet">

<g transform="translate(0.000000,500.000000) scale(0.100000,-0.100000)"
fill="#000000" stroke="none">
<path d="M912 3314 c-117 -31 -211 -92 -289 -189 -167 -206 -154 -517 30 -705
105 -108 213 -158 357 -167 198 -12 382 82 492 251 73 113 100 272 68 407 -44
192 -203 354 -396 404 -72 19 -191 18 -262 -1z m269 -30 c166 -49 294 -171
350 -332 73 -212 -10 -463 -194 -586 -207 -136 -480 -113 -651 57 -326 324
-103 875 355 877 50 0 108 -7 140 -16z"/>
<path d="M839 3138 c-20 -11 -46 -38 -58 -58 -23 -42 -28 -117 -10 -153 21
-41 253 -267 274 -267 25 0 245 220 270 269 22 43 16 122 -12 159 -53 72 -147
94 -222 51 l-38 -21 -34 21 c-46 28 -122 28 -170 -1z m176 -15 l28 -20 35 23
c87 59 218 7 238 -95 15 -72 0 -99 -134 -233 -69 -71 -131 -128 -137 -128 -13
0 -249 238 -264 267 -31 61 -2 154 61 194 43 26 132 23 173 -8z"/>
<path d="M1010 2995 c0 -21 -5 -25 -30 -25 -28 0 -30 -3 -30 -35 0 -32 2 -35
30 -35 27 0 30 -3 30 -30 0 -28 3 -30 35 -30 32 0 35 2 35 30 0 27 3 30 30 30
28 0 30 3 30 35 0 32 -2 35 -30 35 -25 0 -30 4 -30 25 0 22 -4 25 -35 25 -31
0 -35 -3 -35 -25z m60 -15 c0 -25 4 -30 25 -30 18 0 25 -5 25 -20 0 -15 -7
-20 -25 -20 -21 0 -25 -5 -25 -30 0 -25 -4 -30 -25 -30 -21 0 -25 5 -25 30 0
27 -3 30 -30 30 -23 0 -30 4 -30 20 0 16 7 20 30 20 27 0 30 3 30 30 0 25 4
30 25 30 21 0 25 -5 25 -30z"/>
<path d="M634 2837 c-3 -9 7 -57 23 -108 24 -81 35 -103 85 -161 54 -62 58
-70 58 -117 l0 -51 110 0 110 0 0 45 c0 25 -4 45 -10 45 -5 0 -12 27 -16 60
-8 75 -24 95 -108 140 -58 31 -68 33 -96 23 l-30 -11 -37 71 c-28 53 -44 73
-61 75 -13 2 -24 -3 -28 -11z m73 -59 c32 -66 110 -161 147 -179 11 -6 0 10
-26 36 -27 27 -48 52 -48 56 0 5 11 11 23 14 31 8 155 -59 166 -89 5 -11 11
-45 15 -73 l7 -53 -83 0 -83 0 -65 75 c-56 65 -69 87 -92 162 -15 49 -26 94
-23 101 10 27 32 9 62 -50z m303 -333 l0 -35 -100 0 -100 0 0 35 0 35 100 0
100 0 0 -35z"/>
<path d="M1367 2776 c-38 -74 -38 -74 -67 -63 -26 10 -38 6 -105 -27 -41 -21
-79 -45 -84 -55 -5 -9 -13 -45 -17 -79 -3 -34 -11 -62 -15 -62 -5 0 -9 -20 -9
-45 l0 -45 111 0 110 0 -2 49 c-3 47 0 52 55 116 51 57 62 78 88 161 23 75 27
98 17 110 -24 29 -44 14 -82 -60z m77 55 c3 -4 -8 -51 -24 -102 -26 -82 -38
-103 -93 -166 l-62 -72 -83 -1 -83 0 7 58 c3 31 10 64 15 73 9 18 131 89 152
89 7 0 19 -5 27 -10 12 -8 6 -19 -35 -61 -39 -41 -43 -47 -18 -30 45 30 95 95
132 169 29 57 51 76 65 53z m-166 -383 l-3 -33 -97 -3 -98 -3 0 36 0 35 101 0
100 0 -3 -32z"/>
<path d="M1800 2800 l0 -110 25 0 c23 0 25 4 25 40 0 35 3 40 23 40 19 0 27
-8 37 -40 10 -32 18 -40 37 -40 27 0 28 6 8 53 -13 31 -13 36 0 47 9 8 15 30
15 56 0 54 -16 64 -104 64 l-66 0 0 -110z m118 43 c-2 -23 -8 -29 -35 -31 -31
-3 -33 -1 -33 27 0 29 3 31 36 31 33 0 35 -2 32 -27z"/>
<path d="M2066 2894 c-12 -11 -16 -35 -16 -88 0 -99 10 -111 94 -111 40 0 70
5 78 13 18 18 18 163 -1 185 -19 23 -133 24 -155 1z m108 -30 c17 -17 22 -99
7 -122 -5 -8 -22 -12 -42 -10 -34 3 -34 3 -37 61 -3 62 8 87 39 87 9 0 25 -7
33 -16z"/>
<path d="M2339 2808 c-17 -57 -33 -106 -36 -110 -2 -5 7 -8 22 -8 18 0 28 7
35 25 8 21 16 25 50 25 34 0 41 -4 46 -25 4 -18 13 -25 30 -25 13 0 24 3 24 7
0 4 -14 54 -32 110 l-31 103 -38 0 -38 0 -32 -102z m87 12 c13 -42 10 -50 -17
-50 -27 0 -31 15 -18 60 14 46 19 44 35 -10z"/>
<path d="M2590 2800 l0 -110 43 0 c52 0 108 15 119 32 4 7 8 43 8 81 0 91 -16
107 -105 107 l-65 0 0 -110z m118 12 c4 -62 -10 -84 -47 -80 -25 3 -26 6 -29
71 l-3 68 38 -3 38 -3 3 -53z"/>
<path d="M2830 2903 c0 -5 11 -53 24 -108 l23 -100 33 0 c33 0 34 1 49 62 19
75 26 84 35 41 20 -98 25 -108 59 -108 l33 0 18 88 c11 48 21 97 24 110 4 18
0 22 -20 22 -23 0 -26 -5 -38 -75 -7 -41 -16 -75 -20 -75 -3 0 -14 34 -24 75
-17 71 -19 75 -46 75 -24 0 -29 -5 -34 -37 -24 -130 -36 -135 -56 -26 -11 56
-15 63 -36 63 -13 0 -24 -3 -24 -7z"/>
<path d="M3246 2898 c-18 -57 -60 -185 -64 -195 -2 -8 5 -13 22 -13 19 0 27 6
32 25 5 22 12 25 50 25 38 0 44 -3 50 -25 4 -18 13 -25 30 -25 28 0 28 4 -16
135 -26 79 -27 80 -63 83 -24 2 -39 -1 -41 -10z m64 -105 c0 -18 -6 -23 -25
-23 -29 0 -32 17 -13 71 l12 34 12 -30 c7 -17 13 -40 14 -52z"/>
<path d="M3440 2890 c0 -16 7 -20 35 -20 l35 0 0 -90 c0 -89 0 -90 25 -90 25
0 25 1 25 90 l0 90 30 0 c23 0 30 4 30 20 0 19 -7 20 -90 20 -83 0 -90 -1 -90
-20z"/>
<path d="M3711 2901 c-19 -12 -32 -92 -23 -143 9 -50 34 -68 100 -68 35 0 42
3 42 20 0 17 -7 20 -40 20 -35 0 -42 4 -51 28 -6 15 -8 46 -4 69 5 33 11 42
31 47 14 4 34 4 45 1 15 -5 19 -1 19 14 0 19 -6 21 -52 21 -29 0 -59 -4 -67
-9z"/>
<path d="M3910 2800 l0 -110 25 0 c23 0 25 4 25 45 l0 45 40 0 40 0 0 -45 c0
-41 2 -45 25 -45 l25 0 0 110 0 110 -25 0 c-23 0 -25 -4 -25 -46 l0 -45 -37 3
c-37 3 -38 4 -41 46 -3 37 -6 42 -28 42 -24 0 -24 0 -24 -110z"/>
</g>
</svg>
