<?xml version="1.0" standalone="no"?>
<!DOCTYPE svg PUBLIC "-//W3C//DTD SVG 20010904//EN"
 "http://www.w3.org/TR/2001/REC-SVG-20010904/DTD/svg10.dtd">
<svg version="1.0" xmlns="http://www.w3.org/2000/svg"
 width="500.000000pt" height="500.000000pt" viewBox="0 0 500.000000 500.000000"
 preserveAspectRatio="xMidYMid meet">

<g transform="translate(0.000000,500.000000) scale(0.100000,-0.100000)"
fill="#000000" stroke="none">
<path d="M2354 3535 c-178 -39 -330 -142 -433 -294 -229 -338 -115 -796 249
-999 102 -57 190 -77 330 -77 108 1 136 5 205 28 291 97 485 360 485 656 0
120 -22 210 -76 321 -38 77 -62 110 -128 175 -66 66 -98 89 -176 127 -153 75
-306 96 -456 63z m298 -40 c197 -52 359 -186 442 -366 48 -105 61 -169 60
-289 -1 -179 -61 -318 -194 -451 -63 -63 -94 -85 -171 -122 -111 -53 -183 -70
-299 -69 -293 3 -530 181 -627 472 -14 43 -18 85 -18 190 1 116 4 144 24 200
38 106 80 170 166 257 66 66 98 90 166 122 46 23 109 47 139 55 74 20 237 20
312 1z"/>
<path d="M2282 3325 c-124 -38 -187 -173 -137 -293 10 -22 78 -99 173 -194
120 -121 162 -158 181 -158 20 0 61 36 177 153 159 159 181 189 190 259 10 70
-11 127 -66 179 -77 75 -180 84 -270 25 l-36 -23 -29 23 c-16 13 -51 28 -78
34 -57 12 -51 12 -105 -5z m143 -25 c22 -11 48 -25 58 -32 14 -10 20 -10 35 0
72 52 149 64 217 33 97 -45 141 -159 100 -259 -21 -49 -312 -342 -341 -342
-25 0 -302 278 -329 330 -23 44 -24 134 -3 175 52 98 170 141 263 95z"/>
<path d="M2450 3115 c0 -33 -2 -35 -35 -35 -35 0 -35 0 -35 -45 0 -45 0 -45
35 -45 33 0 35 -2 35 -35 0 -35 0 -35 45 -35 45 0 45 0 45 35 0 34 1 35 40 35
l40 0 0 45 0 45 -40 0 c-39 0 -40 1 -40 35 0 35 0 35 -45 35 -45 0 -45 0 -45
-35z m78 -17 c3 -36 5 -38 38 -38 30 0 34 -3 34 -25 0 -22 -4 -25 -35 -25 -34
0 -35 -1 -35 -40 0 -38 -2 -40 -30 -40 -28 0 -30 2 -30 40 0 39 -1 40 -35 40
-31 0 -35 3 -35 25 0 22 4 25 35 25 34 0 35 1 35 41 0 38 1 40 28 37 23 -3 27
-8 30 -40z"/>
<path d="M1977 2924 c-13 -14 -7 -59 23 -158 34 -114 41 -126 124 -220 l61
-68 -4 -64 -3 -64 146 0 146 0 0 54 c0 36 -4 56 -14 59 -8 3 -16 30 -21 74
-11 110 -21 123 -120 177 -88 47 -118 53 -166 32 -12 -5 -27 13 -65 86 -40 76
-54 94 -74 96 -14 2 -29 0 -33 -4z m100 -108 c34 -68 63 -108 115 -160 38 -38
71 -66 75 -62 3 3 -22 34 -57 67 -56 55 -61 63 -45 72 26 14 74 11 94 -6 9 -8
40 -27 68 -41 29 -14 59 -36 67 -49 14 -22 37 -163 28 -172 -3 -3 -49 -5 -103
-5 l-97 0 -86 99 c-85 98 -86 100 -122 216 -26 88 -32 120 -24 130 20 24 40 4
87 -89z m373 -406 l0 -40 -125 0 -125 0 0 40 0 40 125 0 125 0 0 -40z"/>
<path d="M2913 2838 c-39 -76 -52 -92 -68 -90 -67 11 -82 11 -101 0 -12 -7
-49 -28 -82 -46 -34 -17 -68 -42 -76 -55 -8 -12 -19 -58 -24 -102 -6 -44 -16
-81 -21 -83 -6 -2 -11 -28 -11 -58 l0 -54 140 0 140 0 0 63 0 62 78 90 c76 88
78 92 111 209 37 128 36 148 -12 154 -23 3 -30 -6 -74 -90z m95 51 c1 -13 -13
-72 -31 -130 -33 -102 -37 -110 -118 -203 l-84 -96 -103 0 -103 0 7 63 c10 93
25 129 59 146 17 8 52 28 79 44 53 31 100 38 119 18 9 -10 -2 -25 -51 -72 -35
-33 -56 -59 -47 -59 30 0 142 128 186 213 23 45 46 88 52 95 15 18 32 9 35
-19z m-210 -481 l3 -38 -130 0 -131 0 0 33 c0 19 3 37 7 41 4 3 61 5 127 4
l121 -3 3 -37z"/>
<path d="M1350 1870 l0 -110 25 0 c23 0 25 4 25 41 0 38 2 40 27 37 20 -2 29
-11 38 -38 9 -27 18 -36 39 -38 l26 -3 -15 38 c-14 35 -14 42 0 69 19 37 19
64 -1 92 -13 19 -24 22 -90 22 l-74 0 0 -110z m125 60 c3 -6 3 -19 0 -30 -5
-15 -15 -20 -41 -20 -31 0 -34 2 -34 30 0 28 3 30 34 30 19 0 38 -5 41 -10z"/>
<path d="M1620 1964 c-8 -9 -13 -44 -13 -91 0 -67 2 -78 22 -95 29 -23 108
-24 139 -2 20 13 22 24 22 94 0 100 -9 110 -94 110 -45 0 -67 -4 -76 -16z
m108 -23 c9 -5 12 -27 10 -72 l-3 -64 -33 -3 c-27 -3 -34 1 -43 25 -13 34 -5
103 13 114 17 11 39 11 56 0z"/>
<path d="M1925 1968 c-18 -47 -65 -193 -65 -200 0 -4 11 -8 24 -8 17 0 26 7
30 25 5 21 12 25 46 25 33 0 42 -4 52 -25 7 -17 19 -25 36 -25 15 0 22 5 20
13 -3 6 -20 56 -37 110 l-33 97 -34 0 c-19 0 -37 -6 -39 -12z m64 -110 c1 -12
-6 -18 -22 -18 -39 0 -39 6 -10 90 6 16 31 -41 32 -72z"/>
<path d="M2140 1869 l0 -112 72 6 c94 8 101 16 101 113 0 95 -8 104 -105 104
l-68 0 0 -111z m123 33 c4 -20 3 -51 -1 -67 -7 -24 -14 -31 -40 -33 l-32 -3 0
70 0 71 34 0 c31 0 34 -3 39 -38z"/>
<path d="M2406 1879 c13 -55 24 -105 24 -110 0 -5 15 -9 34 -9 34 0 34 0 51
71 20 79 26 77 45 -13 13 -56 14 -58 46 -58 l32 0 22 93 c11 50 23 100 26 110
4 13 -1 17 -20 17 -22 0 -26 -6 -36 -57 -23 -114 -24 -115 -49 -16 -15 61 -20
68 -44 71 -28 3 -35 -12 -53 -110 -3 -21 -10 -38 -14 -38 -4 0 -11 17 -14 38
-17 92 -26 112 -50 112 l-24 0 24 -101z"/>
<path d="M2771 1878 c-17 -57 -31 -106 -31 -110 0 -20 41 -6 50 17 8 21 16 25
50 25 34 0 42 -4 50 -25 7 -17 17 -25 34 -25 25 0 25 0 11 40 -8 23 -24 72
-35 110 l-21 70 -38 0 -38 0 -32 -102z m87 15 c13 -41 9 -53 -18 -53 -10 0
-21 4 -24 8 -6 11 15 82 24 82 4 0 12 -16 18 -37z"/>
<path d="M3000 1960 c0 -16 7 -20 30 -20 l30 0 0 -90 c0 -89 0 -90 25 -90 25
0 25 1 25 90 l0 90 30 0 c23 0 30 4 30 20 0 18 -7 20 -85 20 -78 0 -85 -2 -85
-20z"/>
<path d="M3256 1958 c-16 -23 -22 -111 -10 -155 8 -27 51 -45 100 -41 27 2 40
8 42 21 3 14 -4 17 -35 17 -52 0 -63 14 -63 77 0 43 4 54 21 64 12 6 34 8 50
5 24 -5 29 -2 29 14 0 18 -7 20 -59 20 -51 0 -62 -3 -75 -22z"/>
<path d="M3470 1870 l0 -110 25 0 c23 0 25 4 25 45 l0 45 40 0 40 0 0 -45 c0
-41 2 -45 25 -45 l25 0 0 110 0 110 -25 0 c-23 0 -25 -4 -25 -45 l0 -45 -40 0
-40 0 0 45 c0 41 -2 45 -25 45 l-25 0 0 -110z"/>
</g>
</svg>
