<?xml version="1.0" encoding="utf-8"?>
<!-- Uploaded to: SVG Repo, www.svgrepo.com, Generator: SVG Repo Mixer Tools -->
<svg width="800px" height="800px" viewBox="0 0 128 128" xmlns="http://www.w3.org/2000/svg" xmlns:xlink="http://www.w3.org/1999/xlink" aria-hidden="true" role="img" class="iconify iconify--noto" preserveAspectRatio="xMidYMid meet">
<linearGradient id="IconifyId17ecdb2904d178eab9180" gradientUnits="userSpaceOnUse" x1="64" y1="66.776" x2="64" y2="141.531">
<stop offset="0" stop-color="#424242">
</stop>
<stop offset=".305" stop-color="#222">
</stop>
<stop offset=".87">
</stop>
</linearGradient>
<ellipse cx="64" cy="82" rx="57.07" ry="29.74" fill="url(#IconifyId17ecdb2904d178eab9180)">
</ellipse>
<linearGradient id="IconifyId17ecdb2904d178eab9181" gradientUnits="userSpaceOnUse" x1="64.115" y1="50.815" x2="64.115" y2="112.97">
<stop offset="0" stop-color="#bdbdbd">
</stop>
<stop offset=".559" stop-color="#919191">
</stop>
<stop offset=".963" stop-color="#757575">
</stop>
</linearGradient>
<path d="M117.95 95.7c25.01-27.3-28.72-49.4-65.53-44.38c-41.89 3.58-68.95 33.41-28.93 53.74c30.38 15.44 79.32 7.93 94.46-9.36c-.01 0-.01 0 0 0c-.01 0-.01 0 0 0zM64 109.27c-24.1 0-45.21-7.87-52.9-18.51c13.71-34.17 93.92-32.23 105.8 0c-7.69 10.63-28.8 18.51-52.9 18.51z" fill="url(#IconifyId17ecdb2904d178eab9181)">
</path>
<path d="M11.1 90.76c1.8-4.48 4.75-8.34 8.53-11.59l-.67-14.21C10.58 69.7 7.27 76.23 7.27 81.5c0 4.37 3.83 9.26 3.83 9.26z" fill="#757575">
</path>
<g>
<path d="M116.91 90.76c-1.8-4.48-4.55-8.4-8.52-11.63l.66-14.16c8.37 4.74 11.69 11.27 11.69 16.54c0 4.36-3.83 9.25-3.83 9.25z" fill="#757575">
</path>
</g>
</svg>