<?xml version="1.0" standalone="no"?>
<!DOCTYPE svg PUBLIC "-//W3C//DTD SVG 20010904//EN"
 "http://www.w3.org/TR/2001/REC-SVG-20010904/DTD/svg10.dtd">
<svg version="1.0" xmlns="http://www.w3.org/2000/svg"
 width="39.000000pt" height="39.000000pt" viewBox="0 0 39.000000 39.000000"
 preserveAspectRatio="xMidYMid meet">
<metadata>
Created by potrace 1.10, written by Peter Selinger 2001-2011
</metadata>
<g transform="translate(0.000000,39.000000) scale(0.100000,-0.100000)"
fill="#000000" stroke="none">
<path d="M111 375 c-5 -5 -13 -31 -19 -56 -7 -26 -15 -55 -19 -64 -5 -15 -3
-17 12 -11 18 6 18 6 3 -11 -10 -11 -14 -28 -11 -45 4 -20 0 -28 -15 -32 -14
-5 -25 -25 -38 -71 -9 -36 -14 -68 -10 -72 7 -7 284 -12 339 -5 l35 4 -20 71
c-11 40 -22 74 -24 76 -2 2 -14 -4 -25 -15 -21 -19 -22 -19 -15 3 5 15 2 25
-11 32 -10 6 -13 11 -7 11 5 0 18 6 28 13 16 12 16 17 -5 92 -13 44 -24 82
-26 84 -6 9 -165 5 -172 -4z m174 -62 c9 -32 18 -66 21 -75 4 -12 -5 -24 -26
-36 l-31 -19 23 -15 23 -16 -22 -30 c-30 -41 -18 -47 25 -12 l36 30 18 -58
c10 -31 18 -58 18 -59 0 -2 -78 -3 -174 -3 l-174 0 18 56 c12 41 24 61 44 71
22 11 24 17 16 33 -14 26 -14 25 21 65 36 41 33 55 -7 29 -21 -14 -26 -15 -21
-4 3 8 11 34 18 58 l11 42 73 0 74 0 16 -57z"/>
</g>
</svg>
