<?xml version="1.0" encoding="UTF-8"?>
<svg id="Layer_1" data-name="Layer 1" xmlns="http://www.w3.org/2000/svg" width="32" height="32"
  viewBox="240 287 600 510" preserveAspectRatio="xMidYMid meet">
  <defs>
    <style>
      .cls-1 {
        fill: #feb979;
      }

      .cls-1,
      .cls-2,
      .cls-3,
      .cls-4,
      .cls-5,
      .cls-6,
      .cls-7,
      .cls-8,
      .cls-9,
      .cls-10,
      .cls-11,
      .cls-12,
      .cls-13,
      .cls-14,
      .cls-15 {
        stroke-width: 0px;
      }

      .cls-16,
      .cls-17,
      .cls-18,
      .cls-19,
      .cls-20 {
        fill: none;
        stroke: #fff;
        stroke-miterlimit: 10;
      }

      .cls-16,
      .cls-17,
      .cls-20 {
        stroke-width: 4px;
      }

      .cls-17 {
        stroke-dasharray: 0 0 27.96 27.96;
      }

      .cls-2 {
        fill: #fb7111;
      }

      .cls-3 {
        fill: #c9c7c7;
      }

      .cls-4 {
        fill: #faf7f1;
      }

      .cls-5 {
        fill: #f17f25;
      }

      .cls-6 {
        fill: #101010;
      }

      .cls-7 {
        fill: #fde0c4;
      }

      .cls-8 {
        fill: #b52b10;
      }

      .cls-9 {
        fill: #fb710f;
      }

      .cls-10 {
        fill: #fcfbfa;
      }

      .cls-18 {
        stroke-dasharray: 0 15;
        stroke-width: .75px;
      }

      .cls-19 {
        stroke-width: 3px;
      }

      .cls-19,
      .cls-20 {
        stroke-dasharray: 0 30;
      }

      .cls-11 {
        fill: #fff;
      }

      .cls-12 {
        fill: #aa210f;
      }

      .cls-13 {
        fill: #b3b2b0;
      }

      .cls-14 {
        fill: #0f0e0e;
      }

      .cls-15 {
        fill: #c5310f;
      }
    </style>
  </defs>
  <path class="cls-14"
    d="M830.31,405.72c-42.81-.11-315.47,10.04-133.54,53.02,8.49,2.55,16.8,8.46,6.71,13.57-22.38,7.83-47.17,8.44-70.42,12.92-5.48.43-10.96,1.05-15.91,2.12-27.92-1.97-79.39,10.37-172.14,32.61-6.92,1.66-19.19,4.69-34.19,10.86-8.04-.87-19.03,4.5-25.5,6.77-28.25,9.8-56.46,20.05-82.42,32.68-40.13,17.3-66.06,40.98-62.25,105.18,8.16,137.69,304.54,133.76,475.84,93.79,64.55-15.06,168.01-107.53,72.85-177.1-16.16-13.91-37.87-28.35-53.5-42.95-55.14-47.97,49.92-48.28,71.54-71.22,8.84-14.58-16.59-21.01-26.69-23.53-8.29-4.53-88.2-10.14-71.84-25.24,5.19-9,171.63-22.4,121.47-23.49Z" />
  <g>
    <path class="cls-11"
      d="M366.97,661.55c-4.36,9.24-10.42,15.05-18.1,17.07-3.55,14.02-7.13,28.03-10.73,42.03-4.55-.91-6.83-1.37-11.38-2.33,4.12-13.63,8.19-27.26,12.24-40.91-2.23-.46-3.35-.7-5.58-1.17-7.24,12.97-14.6,25.87-22.09,38.7-4.43-1.01-6.64-1.53-11.06-2.59,15.7-25.36,30.78-51.04,45.26-77.11,5.56,1.17,8.34,1.73,13.91,2.81,4.75.92,7.94,3.36,9.62,7.42,1.7,4.1,1.05,9.45-2.08,16.1ZM357.26,659.51c1.85-3.76,2.43-6.64,1.78-8.67-.65-2.01-2.2-3.25-4.68-3.74-1.88-.37-2.82-.56-4.69-.94-4.27,8.1-6.43,12.13-10.82,20.18,2.31.49,3.47.72,5.78,1.19,2.58.27,5.02-.33,7.28-1.8,2.25-1.46,4.03-3.55,5.35-6.23Z" />
    <path class="cls-11"
      d="M404.03,644.27c6.26.89,9.82,4.52,10.34,10.74.86,10.36-2.73,21.58-5.96,31.42-3.76,11.46-8.42,23.5-15.96,33.02-5.8,7.32-12.96,10.46-20.79,9.19-7.84-1.28-11.76-6.29-11.38-14.34.54-11.5,5.48-23.15,10.09-33.64,4.48-10.19,9.47-20.99,16.88-29.55,4.99-5.48,10.52-7.72,16.78-6.83ZM400.09,654.45c-2.19-.32-4.48.72-6.89,3.14-2.43,2.43-6.78,10.57-12.49,24.41-3.54,8.59-8.2,18.8-8.23,27.34-.01,3.05,1.8,5.29,4.38,5.7,2.67.43,5.84-.84,8.25-3.7,5.9-7.01,9.61-17.61,12.83-26.72,4.91-13.91,6.72-22.56,6.25-25.43-.47-2.84-1.83-4.41-4.1-4.74Z" />
    <path class="cls-11"
      d="M450.52,736.37c-4.77-.39-7.15-.6-11.92-1.05.29-10.01.44-15.02.76-25.02-5.54-.53-8.3-.81-13.83-1.42-4.63,9.54-6.99,14.3-11.81,23.79-4.65-.56-6.97-.85-11.62-1.46,14.16-26.69,27.59-53.69,40.32-81.09,3.61.36,5.42.52,9.03.84-.47,28.47-.78,56.93-.92,85.4ZM440.31,697.14c.77-10.75,1.16-16.12,1.95-26.87-3.53,8.69-7.14,17.35-10.83,25.97,3.55.37,5.33.55,8.88.89Z" />
    <path class="cls-11"
      d="M502.17,693.87c-.84,11.08-2.39,22.96-7.29,33.03-3.81,7.83-9.48,11.73-16.46,11.36-7.41-.39-11.11-.63-18.51-1.16,4.89-28.11,9.56-56.24,14.03-84.42,5.94.38,8.92.54,14.86.82,5.6.26,9.45,3.22,11.64,9.02,3.25,9.88,2.5,21.25,1.74,31.35ZM492.1,693.5c1.35-13.7,1.18-22.17-.06-25.4-1.23-3.2-3.09-4.8-5.61-4.85-1.9-.09-2.85-.14-4.76-.24-2.81,20.86-5.71,41.71-8.71,62.54,2.24.13,3.36.2,5.6.32,2.85.25,5.52-1.95,7.93-6.53,2.38-4.52,4.38-13.34,5.61-25.84Z" />
    <path class="cls-11"
      d="M558.22,654.07c-1.06,28.44-2.28,56.87-3.65,85.3-3.92.09-5.88.13-9.81.19-3.15-16.78-6.18-33.59-9.1-50.41-2.38,16.86-4.92,33.69-7.56,50.5-3.92-.01-5.88-.03-9.81-.08-2.16-28.42-4.12-56.84-5.9-85.28,3.75.08,5.63.11,9.38.14,1.03,12.24,2.1,24.47,3.21,36.7,2.21-12.2,4.34-24.42,6.38-36.66,3.15,0,4.72,0,7.87-.04,2.33,12.21,4.76,24.41,7.27,36.59.85-12.24,1.67-24.48,2.44-36.73,3.71-.07,5.56-.12,9.27-.23Z" />
    <path class="cls-11"
      d="M618.97,735.73c-4.77.43-7.15.62-11.93.99-3.82-9.73-5.69-14.6-9.35-24.37-5.55.38-8.32.56-13.87.86-.66,10.04-1,15.07-1.72,25.11-4.67.24-7.01.35-11.68.54,2.68-28.51,5.08-57.03,7.19-85.59,3.62-.19,5.43-.29,9.05-.51,10.15,27.91,20.91,55.54,32.31,82.97ZM593.42,699.42c-3.45-10.57-5.14-15.86-8.44-26.46-.16,10.8-.25,16.2-.46,27,3.56-.2,5.34-.31,8.9-.54Z" />
    <path class="cls-11"
      d="M637.96,658.06c-3.88.46-5.82.68-9.7,1.09,6.63,24.56,13.52,49.03,20.68,73.44-4.54.55-6.82.81-11.36,1.3-6.47-24.54-12.7-49.12-18.69-73.78-3.66.35-5.5.52-9.16.84-.84-3.89-1.25-5.84-2.08-9.73,11.01-.94,16.51-1.49,27.5-2.77,1.12,3.84,1.69,5.77,2.82,9.61Z" />
    <path class="cls-11"
      d="M663.13,653.11c-1.98.23-3.51,1.9-3.6,4.25-.3,8.29,3.88,18.95,7.07,27.4,3.48,9.2,7.32,20.21,13.52,27.27,2.32,2.64,5.45,3.6,7.8,3.12,3.62-.73,4.73-3.84,2.86-9.57,4.19-.7,6.29-1.06,10.47-1.81,3,6.65,3.65,12.16,1.78,16.49-1.9,4.38-5.28,7.01-10.09,7.81-7.48,1.24-14.29-1.55-19.69-8.15-7.95-9.74-12.71-22.35-16.58-33.89-3.33-9.89-7.74-22.04-6.18-32.65.79-5.37,4.19-8.62,9.59-9.4,3.55-.51,7.37.4,11.54,2.73,4.21,2.36,7.44,6.15,9.68,11.44-3.7.61-5.55.91-9.26,1.49-2.08-4.87-5.06-6.97-8.92-6.52Z" />
    <path class="cls-11"
      d="M761.73,712.35c-4.47,1.07-6.71,1.6-11.19,2.62-7.49-12.83-14.84-25.73-22.08-38.7-5.7,1.22-8.55,1.8-14.27,2.93,6.72,13.14,13.55,26.22,20.51,39.24-4.44.94-6.66,1.39-11.11,2.27-13.15-26.28-25.76-52.79-37.85-79.58,3.58-.62,5.37-.94,8.95-1.6,4.76,9.92,9.58,19.79,14.46,29.65,5.56-1.08,8.33-1.64,13.88-2.8-5.26-9.73-10.45-19.49-15.58-29.3,3.61-.72,5.42-1.09,9.02-1.85,14.48,26.08,29.55,51.76,45.26,77.11Z" />
  </g>
  <g>
    <path class="cls-16" d="M307.17,664.87c-2.52-3.61-5.21-8.13-7.04-13.2" />
    <path class="cls-17" d="M301.88,624.7c8.36-14.53,27.96-23.31,41.81-28.75,44.91-17.63,159.22-42.02,315.35-81.75" />
    <path class="cls-16" d="M672.59,510.74c4.81-1.23,9.65-2.48,14.53-3.74" />
  </g>
  <g>
    <path class="cls-14"
      d="M673.54,587.2c-8.62-28.42-17.65-59.41-51.41-58.84-2.78-8.11-4.45-16.78-7.07-25.06-15.31-51.46-30.43-96.64-45.81-149.69-1.64-5.26-2.5-8.87-4.05-12.98-3.69-9.89-4.66-20.16-8.73-29.86-12-31.35-54.27-31.67-70.05-4.57-1.99,3.37-3.27,7.21-4.32,11.08-9.32,31.76-16.88,58-23.73,82.28-12.17,42.57-25.12,85.07-36.27,127.92-.36,1.31-1.77,1.57-3.02,1.46-24.57-1.01-35.77,24.49-42.83,43.83-12.44,23.53-7.79,54.15,17.33,63.05,4.77,1.79,10.98,2.48,16.21,2.37,60.03.08,119.94.07,179.95.05,16.33-.22,32.69.44,48.94-.3,25.11-1.57,41.42-18.16,34.9-50.49l-.06-.26ZM444.1,559.42c-.05-.11-.1-.22-.16-.33,0,0,0,0,0,0h0s0,0,0,0c.07.11.11.22.16.33Z" />
    <g>
      <path class="cls-10"
        d="M427.49,573.33c-.26-2.66,1.02-4.99,1.67-7.44,6.84-25.8,13.52-51.65,20.72-77.35,7.76-27.69,16.21-55.19,24.01-82.88,8.03-28.51,16.27-56.95,24.61-85.36,3.21-10.95,12.85-17.74,23.87-17.25,1.31.06,2.56.24,3.73.85-.38.72-.77,1.43-1.15,2.15-.41.08-.82.16-1.24.24-.45-.61-1.1-.64-1.74-.5-4.75.98-8.99,3.12-12.88,5.94-1.33.96-2.98,2.08-1.57,4.3.38.6-.59,1.31-.81,1.98-1.17,3.54-3.65,6.81-2.41,10.88-.07.41-.13.83-.2,1.24-1.46.56-1.02,1.74-.91,2.81-.1.58-.21,1.17-.31,1.75-.99.61-1.36,1.63-1.61,2.65-.95,3.89-1.87,7.8-2.69,11.72-.39,1.86-2.29,3.54-.74,5.65-.2.64-.39,1.29-.59,1.93-.69.74-1.65,1.42-.64,2.58l-.24,1.23c-1.76,3.01-2.79,6.2-2.28,9.75l-.4,1.85c-1.21.87-2.19,1.79-.87,3.32-.06.41-.13.83-.19,1.24-2.22.63-2.06,2.06-1.26,3.71-.01.3-.02.59-.03.89-2.2-.57-3.99.78-5.69,1.64-1.4.7-.19,2.83-.76,4.18-2.62,6.2-4.16,12.7-5.76,19.21-1.93,7.85-4.05,15.65-6.15,23.45-.37,1.38-.12,2.3,1.2,2.85,1.46.61,2.75,1.73,4.5,1.46,4.27,1.9,8.88,2.47,13.41,3.28,20.18,3.61,40.4,2.83,60.62.42,1.27.22,1.92.79,2.1,2.26.47,3.87,1.21,7.7,1.84,11.55-4.5.87-9.01,1.71-13.09,3.93-14.13,7.68-21.17,28.94-6.94,45.4,6.43,7.44,14.85,10.18,24.51,9.52.1,1.16.12,2.33.3,3.47,1,6.14,2.04,12.28,3.06,18.42-.67.68-1.57.56-2.39.69-4.17.65-8.35,1.27-12.53,1.9-.64.04-1.28.07-1.93.11-2.45.09-4.9.12-7.35.28-21.92,1.46-43.69.27-65.33-3.55-7.09-1.25-13.79-3.93-20.75-5.61,0,0,0,.04,0,.04-.69-.38-1.39-.77-2.08-1.15-.59-.63-1.43-.32-2.1-.56-2.74-.97-3.68.31-4.2,2.81-.69,3.32-1.71,6.58-2.59,9.86-2.4,8.97-4.88,17.92-7.18,26.91-1.79,6.98-1.69,7,4.5,10.73.09.05.21.04.31.06l.9.64c.16.36.37.46.67.14.21,0,.42-.05.63-.12l.12.13.17-.04c5.16,2.97,10.99,4.23,16.47,6.36.68,1.98,2.23,1.03,3.49,1.04.34.09.69.18,1.03.26.3.13.61.26.91.39,1.21.27,2.42.54,3.62.81.75.71,1.44,1.74,2.6.57.41.07.82.15,1.23.22,1.53.32,2.69,2.15,4.56,1.13.83.11,1.67.23,2.5.34.3.76.67,1.22,1.36.32l1.87.25c.46,1.2,1.13,1.32,2.01.38.65-.07,1.31-.14,1.96-.2.65.15,1.3.31,1.94.46.04.87-.25,1.64-.7,2.36-1.27-.07-2.53-.15-3.8-.22-1.23-2.05-3.14-.79-4.76-1-1.47.12-2.91-.04-4.33-.44-.24-.09-.48-.18-.73-.27-.2.05-.38.01-.55-.1-1.24-.66-2.48-1.3-3.91-.55-.85-.08-1.69-.17-2.54-.25-.29-.1-.58-.2-.87-.31-.17.06-.32.02-.44-.12-.72-.97-1.72-.7-2.67-.6-4.13-.51-8.13-1.6-12.07-2.89-8.3-2.72-16.37-5.99-24.05-10.18ZM486.28,510.37c17.5.52,28.5-14.39,29.08-28.24.64-15.43-10.5-29.96-27.75-30.45-16.68-.47-29.65,12.02-29.74,28.24-.09,16.59,12.73,30.33,28.42,30.45Z" />
      <path class="cls-2"
        d="M523.71,306.3c.41-.08.82-.16,1.24-.24,2.53-.15,4.85,1.61,7.45.81,1.78.65,3.16,1.83,4.26,3.34-4.06,3.12-6.59,6.78-5.35,12.34,2.43,10.92,4.62,21.9,6.93,32.85.96,4.56,1.32,9.28,3.47,13.54-2.46,1.31-4.84,2.79-7.63,3.35-5.36,1.12-10.72,2.25-16.08,3.37,2,.36,3.99.47,5.97.33,3.36-.25,6.79.77,10.07-.64,1.38-.02,2.75-.17,4.13-.32,5.4-.58,10.05-3.48,15.21-4.76-2.2,2.71-5.52,3.43-8.57,4.32-2.11.62-2.62,1.5-2.24,3.35,2.03,10.01,4.15,20.01,6.11,30.04,1.89,9.72,3.62,19.46,5.42,29.2-.46.18-.92.35-1.39.53-20.22,2.41-40.44,3.19-60.62-.42-4.53-.81-9.14-1.38-13.41-3.28,2.78-11.17,5.61-22.33,8.32-33.52,1.55-6.4,2.9-12.85,4.34-19.27.01-.3.02-.59.03-.89.99-1.04,1.38-2.29,1.26-3.71.06-.41.13-.83.19-1.24.76-.98,1.04-2.09.87-3.32.13-.62.27-1.23.4-1.85,1.31-3.12,1.79-6.44,2.28-9.75.08-.41.16-.82.24-1.23.73-.73.8-1.63.64-2.58.2-.64.39-1.29.59-1.93,1.68-6.67,3.36-13.35,5.04-20.02.1-.58.21-1.17.31-1.75.63-.83,1.07-1.73.91-2.81.07-.41.13-.83.2-1.24.96-1.36,1.07-3,1.48-4.53,1.4-5.16,3.53-9.88,7.83-13.37,2.99-2.43,6.76-3.08,10.1-4.7ZM490.9,402.94c0,1.61-.32,3.17-.81,4.71-1.19,3.72-2.95,7.25-3.7,11.12-.53,2.49-1.15,4.97-1.56,7.48-.46,2.86,1.76,5.98,4.48,6.46,2.47.44,4.25-.8,4.37-3.07.19-3.54,1.76-6.82,1.6-10.38,1.45-4.39,2.84-8.8,2.63-13.52,3.59-3.1,4.42-6.83,2.01-9.36-2.06-2.15-4.51-2.36-7.04-.97-3.21,1.78-3.07,4.55-1.99,7.53ZM504.94,380.26c-.05-2.56-2.31-4.89-4.65-4.81-2.64.09-5.13,2.66-5.11,5.27.02,2.5,2.53,4.85,5.11,4.76,2.44-.09,4.71-2.64,4.65-5.22ZM517.33,324.33c.1-2.49-1.99-4.77-4.15-4.93-2.19-.16-4.18,1.68-4.2,3.88-.01,2.27,2,4.39,4.27,4.32,2.31-.08,3.72-1.34,4.07-3.27ZM508.02,349.69c1.97-.33,3.4-1.26,3.25-3.35-.13-1.85-1.49-2.9-3.3-2.84-1.99.07-2.71,1.6-2.74,3.35-.03,1.81,1.13,2.65,2.78,2.84ZM505.39,360.18c-1.78.2-2.81,1.09-2.64,2.92.17,1.72,1.15,2.71,2.94,2.61,1.73-.09,2.84-1.12,2.87-2.8.04-2.02-1.51-2.57-3.17-2.73ZM505.98,421.8c-2.14.01-3.59.75-3.47,2.74.11,1.73,1.36,3,3.14,3.03,1.92.03,2.92-1.53,2.96-3.16.04-1.61-1.04-2.77-2.64-2.6Z" />
      <path class="cls-8"
        d="M657.32,591.52c3.28,13.4.6,23.61-11.65,28.63-2.82,1.15-5.81,1.61-8.81,1.61-76.04.03-152.08.07-228.12-.03-7.27,0-13.94-2.28-18.92-8.12-2.33-2.74-3.62-5.89-3.56-9.42.05-3.16-.8-6.4.63-9.47,1.34,5.58,4.38,9.81,9.67,12.28,3.83,2.77,8.29,3.2,12.79,3.47.3.08.6.16.9.25,2.07,0,4.15,0,6.22,0,.73,0,1.46,0,2.18,0,10-.02,20-.03,29.99-.05.64.08,1.27.24,1.91.24,20.07-.01,40.15-.04,60.22-.07,39.57.01,79.14.02,118.72.05,3.43,0,6.88.13,10.24-.7,9.05-2.25,17.3-6.9,17.59-18.67Z" />
      <path class="cls-2"
        d="M657.32,591.52c-.29,11.77-8.54,16.42-17.59,18.67-3.35.83-6.8.7-10.24.7-39.57-.03-79.14-.04-118.72-.05-.75-.87-1.77-.58-2.69-.59-5.21-.02-10.43.03-15.64-.05-.89-.01-2.65.69-2.47-.87.13-1.1.52-3.1,2.64-2.98.74.04,1.5.06,2.23-.03,1.1-.15.53-.87.41-1.43.54.01,1.08.02,1.63.03,2.96-.14,6.13,1.21,8.78-1.19.41-.04.82-.09,1.23-.13.56,1,1.01.86,1.36-.14.86-.06,1.72-.11,2.59-.17.9.69,1.77.76,2.56-.17,1.07-.2,2.14-.4,3.22-.59,2.83-.14,5.78.54,8.38-1.21,28.82-.04,57.64-.09,86.46-.13,4.93,0,9.88.21,14.8-.07,4.39-.25,8.65-1.35,12.54-3.58,5.33-3.05,8.48-9.17,7.38-14.56-1.85-9.07-5.21-17.66-9.13-25.98-2.15-4.56-5.38-8.5-10.61-10.06-.14-.15-.24-.33-.29-.53.01-.23.03-.46.04-.69,0,0,.21-.09.21-.09,0,0,.26.07.26.07l.26-.07c2.51.73,5.11,1.23,7.49,2.23,4.36,1.84,7.93,4.85,9.84,9.22,4.92,11.25,9.61,22.61,13.06,34.42Z" />
      <path class="cls-15"
        d="M554.09,437.19c-1.8-9.73-3.53-19.48-5.42-29.2-1.95-10.03-4.07-20.03-6.11-30.04-.38-1.85.13-2.73,2.24-3.35,3.04-.89,6.36-1.61,8.57-4.32.51-1.07,1.13-2.2.18-3.28-.97-1.1-2.11-.45-3.26-.15-2.85.75-5.44,2.59-8.6,2.09-2.14-4.26-2.51-8.98-3.47-13.54-2.3-10.95-4.49-21.92-6.93-32.85-1.24-5.56,1.3-9.21,5.35-12.34,2.4,1.48,3.15,4.05,3.89,6.46,3.91,12.71,7.7,25.47,11.52,38.21,5.92,19.73,11.82,39.47,17.73,59.2,1.84,6.15,3.7,12.3,5.56,18.45-.81.25-1.61.53-2.42.75-6.21,1.66-12.4,3.42-18.86,3.9Z" />
      <path class="cls-12"
        d="M584.42,591.44l-.28.11s-.3,0-.3,0c-.74,0-1.53-.17-2.03.62,0,0-.02,0-.02,0-5.99-.05-11.79,1.29-17.63,2.33-1.4.25-3.01,1.08-2.6-1.83.18-1.33.09-3.19-1.19-4.43,2.74-1.15,5.81-1.4,8.39-3.09-3.84.46-7.66.77-11.5.6.04-1.06.8-1.5,1.64-1.74,4.83-1.38,9.67-2.75,14.52-4.06,6.4-1.72,12.79-3.54,18.3-7.34,4.33-2.99,7.17-7.12,6.84-12.7-.52-8.78-2.52-17.31-4.63-25.8-.7-2.82-.6-6.02-3.04-8.23.22-.25.45-.49.67-.74,3.81-.39,6.91-2.67,10.38-3.96,2.6,4.32,3,9.32,4.31,14.03,3.88,13.89,7.61,27.83,12.29,41.49.76,2.22.31,3.35-1.61,4.34-6.68,3.45-13.61,6.19-20.95,7.9-4.02.11-7.89.87-11.57,2.53Z" />
      <path class="cls-4"
        d="M510.84,603.29c-.86.06-1.72.11-2.59.16-.48-.22-.94-.23-1.36.14-.41.04-.82.09-1.23.13-2.96.13-5.93.25-8.78,1.19-.54-.01-1.08-.02-1.63-.03-7.72.5-15.44.99-23.16,1.48-5.63-.43-11.21.48-16.81.75-.38.02-.77.04-1.15.06-5.36-.28-10.72.25-16.06.25-13.84,0-27.7,1.05-41.52-.44-5.28-2.47-8.33-6.71-9.67-12.28.19-5.39,2.52-10.15,4.57-14.95,3.61-8.45,6.29-17.34,11.42-25.1,3.26-4.94,8.15-7.45,13.68-8.95.48-.13,1.2-.54,1.39.09.24.81-.06,1.68-.66,2.37-5.2,1.09-8.45,4.59-10.41,9.15-3.51,8.16-6.59,16.5-9.15,25.01-3.07,10.21,5.46,17.31,12.53,18.09,5.81.64,11.74.1,17.62.08,19.5.14,39.01.26,58.51.42,10.07.08,20.14.24,30.21.37,0,.41.01.83.02,1.24-1.07.2-2.14.4-3.22.59-.87-.17-1.73-.18-2.56.17Z" />
      <path class="cls-15"
        d="M484.41,590.04c1.27.07,2.53.15,3.8.22,1.02.69,2.15.56,3.27.44.24.04.48.08.72.12.15.4.33.47.53.03l.66-.04c1.36.23,2.72.54,4.09.69,8.74.95,17.53.48,26.29.77,1.94.79,3.86.97,5.76-.13.21-.04.42-.08.64-.11.04.42-.07.99.16,1.25,3.48,3.81-.35,2.48-1.92,2.77-1.63.3-3.77-.92-4.7,1.54-4.29.47-8.58.4-12.87.06-4.68-1.84-9.43-1.07-14.18-.41-.67-.01-1.33-.02-2-.03-2.95-.67-5.86-1.9-8.96-.66-.44-.07-.88-.14-1.32-.2-1.72-1.95-3.95-.57-5.92-.9-9.09-.85-17.84-3.41-26.7-5.4-7.9-1.77-15.27-4.95-22.69-8.03-2.97-1.23-4.57-2.76-2.51-6,.51-.81.15-1.95.95-2.68,7.68,4.19,15.75,7.45,24.05,10.18,3.94,1.29,7.94,2.38,12.07,2.89.79.66,1.69.8,2.67.6.12.14.27.18.44.12.29.1.58.2.87.31.85.08,1.69.17,2.54.25,1.22.76,2.54.85,3.91.55.17.11.35.14.55.1.15.34.36.52.73.27,1.42.4,2.86.57,4.33.44,1.45.96,3.1,1,4.76,1Z" />
      <path class="cls-3"
        d="M554.09,437.19c6.46-.47,12.65-2.23,18.86-3.9.82-.22,1.62-.5,2.42-.75,4.03,12.39,8.21,24.74,11.96,37.21.74,2.47,2.2,4.81,2.14,7.53-1.06-.35-2.12-.18-3.17.04-1.32-8.89-5.58-15.94-13.03-21.04-5.03-3.43-10.73-4.41-16.62-4.76-.63-3.85-1.37-7.68-1.84-11.55-.18-1.47-.83-2.04-2.1-2.26.46-.18.93-.35,1.39-.53Z" />
      <path class="cls-2"
        d="M427.88,600.5c-5.88.02-11.81.56-17.62-.08-7.06-.78-15.6-7.88-12.53-18.09,2.56-8.51,5.64-16.85,9.15-25.01,1.96-4.56,5.22-8.07,10.41-9.15-1.72,7.85-4.41,15.41-6.72,23.09-.89,2.97-1.84,5.93-2.52,8.95-1.51,6.72,1.33,11.58,6.76,15.33,3.96,2.74,8.56,3.7,13.06,4.96Z" />
      <path class="cls-15"
        d="M626.44,546.95c5.23,1.56,8.46,5.5,10.61,10.06,3.92,8.32,7.28,16.9,9.13,25.98,1.1,5.39-2.05,11.51-7.38,14.56-3.89,2.23-8.15,3.33-12.54,3.58-4.92.28-9.86.07-14.8.07,4.63-1.16,9.46-1.42,13.96-3.21,9.89-3.95,13.3-11.09,10.05-21.32-2.92-9.18-5.85-18.35-8.78-27.52-.23-.72-.5-1.42-.25-2.19Z" />
      <path class="cls-13"
        d="M586.29,477.32c1.05-.23,2.11-.4,3.17-.04,2.68,6.52,4.2,13.42,6.28,20.13,2.06,6.63,3.78,13.35,5.66,20.03.34,1.22.89,2.41.53,3.72-3.47,1.29-6.56,3.57-10.38,3.96-.46-6-2.61-11.64-3.75-17.5-1.01-5.18-1.56-10.5-3.47-15.49,1.31-4.85,2.1-9.77,1.96-14.82Z" />
      <path class="cls-8"
        d="M523.7,597.59c.92-2.47,3.06-1.25,4.7-1.54,1.57-.28,5.4,1.04,1.92-2.77-.23-.25-.11-.82-.16-1.25,3.03-.38,6.06-.77,9.09-1.15,5.69.09,11.21-1.17,16.77-2.11,1.45-.18,2.91-.35,4.36-.53,1.27,1.24,1.37,3.1,1.19,4.43-.4,2.91,1.2,2.08,2.6,1.83,5.84-1.04,11.65-2.38,17.63-2.33-5.19,1.62-10.59,2.47-15.93,2.95-13.19,1.19-26.42,1.87-39.63,2.72-.83.05-1.69-.16-2.53-.26Z" />
      <path class="cls-8" d="M496.64,597.24c4.75-.66,9.5-1.43,14.18.41-4.74.3-9.48.64-14.18-.41Z" />
      <path class="cls-7"
        d="M532.4,306.88c-2.6.79-4.92-.96-7.45-.81.38-.72.77-1.43,1.15-2.15,2.39.36,4.47,1.41,6.3,2.96Z" />
      <path class="cls-7"
        d="M516.62,602.53c0-.41-.01-.83-.02-1.24,2.8.01,5.6.02,8.4.04-2.6,1.75-5.55,1.07-8.38,1.21Z" />
      <path class="cls-8" d="M584.42,591.44c3.68-1.66,7.55-2.42,11.57-2.53-3.71,1.51-7.55,2.42-11.57,2.53Z" />
      <path class="cls-8" d="M485.68,596.55c3.09-1.24,6.01-.01,8.96.66-3.01.17-6.01.11-8.96-.66Z" />
      <path class="cls-8" d="M478.45,595.44c1.97.33,4.2-1.05,5.92.9-2.03.09-3.99-.29-5.92-.9Z" />
      <path class="cls-8" d="M581.81,592.17c.5-.78,1.29-.61,2.03-.62-.52.7-1.29.6-2.03.62Z" />
      <path class="cls-15" d="M626.19,545.74c-.01.23-.02.46-.04.69-.4-.25-.61-.49.04-.69Z" />
      <path class="cls-15" d="M626.93,545.65l-.26.07s-.26-.07-.26-.07c.18-.41.35-.25.52,0Z" />
      <path class="cls-9"
        d="M488.91,587.9c-.65-.15-1.3-.31-1.94-.46-.12-.81-.47-1.47-1.36-1.54-3.49-.25-6.99-.47-10.48-.69-.15.04-.3,0-.42-.09-.92-1.13-2.17-.57-3.3-.65h0c-2.96-1.72-6.18-2.5-9.57-2.69-.15-.53-.35-1.07-.98-1.14-4.41-.49-8.37-2.39-12.27-4.27-1.79-.86-3.41-1.06-5.24-.83l-.17.04s-.12-.13-.12-.13c-1.49-1.85-1.41-3.86-.64-5.97.63-1.74.86-3.54.5-5.38l-.11-.15.08-.16c1.54-1.25,1.96-2.73.93-4.51.21-.64.41-1.29.62-1.93,1.89-.74,1.39-1.96.66-3.24l.35-1.37c2.03-.83,1.76-2.24.96-3.79.09-.42.18-.83.27-1.25.61-.06,1.22-.12,1.84-.17-.04.6-.08,1.2-.12,1.81.15.3.3.6.46.9.04.38.08.76.11,1.14-.08.61-.01,1.16.68,1.38,4.65,4.72,6.42,5.29,11,2.13,6.34-4.36,12.33-9.22,18.09-14.35.06-.06.19-.14.18-.19-.03-.15-.11-.29-.18-.44-.72-.93-1.5-1.78-2.75-1.99-.15-.8-.31-1.57-1.3-.62-.65-.21-1.3-.41-1.95-.62-.24-1.37-.85-1.69-1.93-.67-.44-.19-.88-.37-1.32-.56-.5-1.35-1.54-1.46-2.75-1.22-.37-.05-.73-.1-1.1-.15-.23-.19-.47-.38-.7-.57v.02c-.24-.65-.76-.71-1.35-.64-1.39-.09-2.54-.82-3.75-1.38-.18-.36-.39-.41-.65-.07-.64,0-1.29,0-1.93-.01-.47-.6-.9-.55-1.29.08-.36.04-.73.08-1.09.12-.28.18-.56.35-.84.53-.64.86-1.28,1.72-1.91,2.58-1.4.11-1.14-1.35-1.81-1.93-.07-.5-.04-.98.38-1.34,1.45-.48,1.5-1.69,1.37-2.87-.18-1.65.66-2.31,2.12-2.5,0,0,0-.04,0-.04.26,1.19,1.29,1.26,2.19,1.55,4.79,1.52,9.64,2.83,14.46,4.22,6.37,1.83,12.93,2.15,19.35,3.33,4.64.85,9.54,1.24,14.28,1.33,13.91.28,27.84.65,41.74-.49.72-.06,1.23-.31,1.4-1.05.64-.04,1.28-.07,1.93-.11.9.85,2.03.4,3.06.52,4.2.5,8.08-2.05,12.3-1.3,1.64,10.11,3.13,20.25,4.98,30.32,1.51,8.24-.56,12.7-8.22,15.84-4.75,1.95-9.6,3.65-14.75,4.2-2.14.23-2.76,1.26-1.9,3.22-.72.19-1.44.57-2.16.55-12.13-.29-24.24,1.77-36.39.2-2.57-.33-5.3-.6-7.89.33-.64.03-1.29.07-1.93.1,0-.16-.02-.31-.07-.46-2.53-.71-4.96-2.22-7.73-.88-.05.14-.03.27.06.39ZM521.86,579.11c.97,0,1.94.05,2.9-.01,1.07-.08,2.13-.25,3.19-.41,13.26-2,21.77-9.85,26.77-21.9,1.27-3.06.07-5.56-3.03-7.19-2.43-1.28-4.84-.55-6.62,2.08-.72,1.06-1.42,2.18-1.91,3.36-6.15,14.77-22.25,16.05-32.13,10.87-5.27-2.76-8.75-7.15-10.59-12.8-.73-2.24-2.13-3.74-4.47-4.13-2.21-.36-4,.46-5.28,2.34-1.5,2.2-1.22,4.41-.28,6.74,5.22,12.95,17.38,21.13,31.44,21.07ZM455.34,565.82c-.34-2.27-1.34-4.1-3.99-4.04-2.34.05-3.73,1.41-3.83,3.83-.1,2.61,1.7,4.69,4,4.37,2.21-.31,3.62-1.69,3.82-4.16ZM462.4,563.2c-.81.17-2.4,1.08-2.38,2.77.02,1.81,1.5,2.95,3.47,2.97,1.76.02,2.61-1.22,2.53-2.65-.09-1.5-.4-3.34-3.62-3.09Z" />
      <path class="cls-6"
        d="M486.28,510.37c-15.68-.12-28.5-13.85-28.42-30.45.08-16.21,13.06-28.71,29.74-28.24,17.26.49,28.4,15.02,27.75,30.45-.58,13.85-11.58,28.76-29.08,28.24ZM486.01,459.16c-5.39-.12-10.72,4.69-10.88,9.82-.2,6.4,4.55,11.53,10.73,11.59,5.52.05,10.49-5.2,10.63-11.21.11-5.1-5.01-10.08-10.48-10.2ZM474.38,497.31c2.49-.04,4.7-2.32,4.65-4.78-.06-2.8-2.15-4.91-4.85-4.88-2.54.03-4.69,2.22-4.65,4.73.05,2.78,2.21,4.98,4.84,4.93ZM503.19,493.82c.03-3.14-1.32-4.36-3.76-4.37-2.62-.01-4.05,1.46-4.05,3.97,0,2.35,1.36,3.8,3.81,3.81,2.61.01,3.87-1.47,4-3.41Z" />
      <path class="cls-6"
        d="M586.29,477.32c.14,5.04-.64,9.96-1.96,14.82-1.64,3.2-3.11,6.45-5.62,9.18-4.8,5.21-10.9,7.66-17.61,9.06-9.66.66-18.08-2.08-24.51-9.52-14.23-16.46-7.19-37.71,6.94-45.4,4.09-2.22,8.59-3.07,13.09-3.93,5.89.36,11.6,1.33,16.62,4.76,7.46,5.1,11.72,12.15,13.03,21.04ZM569.27,469.21c-.06-5.29-5.36-10.08-11.02-9.95-5.4.12-10.68,5.34-10.63,10.5.07,5.95,5.12,11.02,10.82,10.85,5.81-.17,10.89-5.53,10.83-11.4ZM551.15,492.3c.02-2.51-2.31-4.75-5.05-4.85-2.66-.09-4.99,2.12-5.01,4.77-.02,2.88,2.17,5.13,5.03,5.16,2.95.03,5.01-2.05,5.03-5.08ZM575.03,493.07c-.16-2.33-1.49-3.57-3.92-3.58-2.52-.01-3.81,1.65-3.9,3.81-.1,2.27,1.33,3.82,3.75,3.85,2.57.03,3.92-1.39,4.07-4.08Z" />
      <path class="cls-3"
        d="M561.11,510.37c6.7-1.4,12.8-3.85,17.61-9.06,2.52-2.73,3.99-5.98,5.62-9.18,1.91,4.99,2.46,10.31,3.47,15.49,1.14,5.86,3.29,11.5,3.75,17.5-.22.25-.45.49-.67.74-1.02.26-2.06.47-3.06.8-7.28,2.39-14.61,4.54-22.19,5.77-.39-.06-.78-.11-1.17-.17-1.03-6.14-2.07-12.28-3.06-18.42-.19-1.14-.21-2.32-.3-3.47Z" />
      <path class="cls-7"
        d="M491.34,381.22c-1.44,6.43-2.79,12.87-4.34,19.27-2.71,11.19-5.54,22.35-8.32,33.52-1.74.26-3.04-.85-4.5-1.46-1.33-.55-1.58-1.47-1.2-2.85,2.1-7.8,4.22-15.61,6.15-23.45,1.6-6.5,3.14-13.01,5.76-19.21.57-1.35-.63-3.48.76-4.18,1.7-.86,3.49-2.21,5.69-1.64Z" />
      <path class="cls-7"
        d="M446.67,547.7c-.09.42-.18.83-.27,1.25-.69,1.17-.9,2.46-.96,3.79-.12.46-.23.91-.35,1.37-.55,1.01-.92,2.06-.66,3.24-.21.64-.41,1.29-.62,1.93-.52,1.46-.95,2.94-.93,4.51l-.08.16s.11.15.11.15c-1.46,3.42-1.72,7.06-2.05,10.69-.11-.02-.23-.01-.31-.06-6.19-3.73-6.29-3.75-4.5-10.73,2.3-8.99,4.78-17.94,7.18-26.91.88-3.28,1.9-6.54,2.59-9.86.52-2.5,1.46-3.79,4.2-2.81.67.24,1.51-.07,2.1.56-1.11,2.03-1.31,4.26-1.42,6.52-.43.36-.45.84-.39,1.34-1.65,4.85-2.63,9.87-3.64,14.88Z" />
      <path class="cls-5"
        d="M547.62,534.97c-.18.74-.69.99-1.4,1.05-13.9,1.14-27.83.77-41.74.49-4.74-.1-9.65-.49-14.28-1.33-6.42-1.18-12.98-1.49-19.35-3.33-4.82-1.39-9.67-2.69-14.46-4.22-.9-.29-1.94-.36-2.19-1.55,6.97,1.69,13.66,4.36,20.75,5.61,21.64,3.82,43.41,5.01,65.33,3.55,2.45-.16,4.9-.19,7.35-.28Z" />
      <path class="cls-7"
        d="M523.71,306.3c-3.34,1.62-7.11,2.27-10.1,4.7-4.3,3.49-6.43,8.2-7.83,13.37-.42,1.54-.52,3.18-1.48,4.53-1.24-4.07,1.24-7.34,2.41-10.88.22-.67,1.19-1.38.81-1.98-1.4-2.22.24-3.34,1.57-4.3,3.88-2.82,8.13-4.96,12.88-5.94.64-.13,1.29-.11,1.74.5Z" />
      <path class="cls-5"
        d="M443.35,575.54c1.83-.22,3.45-.03,5.24.83,3.9,1.87,7.86,3.78,12.27,4.27.63.07.83.6.98,1.14-.08.09-.15.18-.22.27-.6-.05-1.2-.1-1.79-.15-5.48-2.14-11.31-3.39-16.47-6.36Z" />
      <path class="cls-7"
        d="M502.88,334.71c-1.68,6.67-3.36,13.35-5.04,20.02-1.55-2.11.35-3.8.74-5.65.82-3.92,1.74-7.82,2.69-11.72.25-1.02.62-2.04,1.61-2.65Z" />
      <path class="cls-5"
        d="M564.47,532.27c.39.06.78.11,1.17.17-.24.55-.49,1.1-.74,1.64-4.22-.74-8.1,1.8-12.3,1.3-1.03-.12-2.15.32-3.06-.52,4.18-.63,8.36-1.25,12.53-1.9.82-.13,1.73,0,2.39-.69Z" />
      <path class="cls-5"
        d="M475.12,585.2c3.49.23,6.99.44,10.48.69.89.06,1.24.73,1.36,1.54-.65.07-1.31.14-1.96.2-.58-.59-1.26-.65-2-.38-.62-.08-1.25-.17-1.87-.25-.36-.5-.83-.57-1.36-.32-.83-.11-1.67-.23-2.5-.34-.71-.38-1.43-.76-2.14-1.14Z" />
      <path class="cls-5"
        d="M440.86,574.79c.34-3.63.59-7.28,2.05-10.69.36,1.84.13,3.64-.5,5.38-.77,2.12-.85,4.12.64,5.97-.2.07-.41.11-.63.12-.22-.05-.45-.1-.67-.14l-.9-.64Z" />
      <path class="cls-7" d="M496.37,360.48c-.49,3.31-.96,6.63-2.28,9.75-.51-3.55.51-6.73,2.28-9.75Z" />
      <path class="cls-5"
        d="M461.83,581.77c3.39.19,6.62.97,9.57,2.7-.84-.02-1.69-.04-2.53-.07-1.21-.27-2.42-.54-3.62-.81-.3-.13-.61-.26-.91-.39-.34-.09-.69-.18-1.03-.26-.57-.3-1.13-.6-1.7-.9.07-.09.15-.18.22-.27Z" />
      <path class="cls-5"
        d="M450.69,531.48c.1-2.25.31-4.48,1.42-6.52.69.38,1.39.77,2.08,1.15-1.46.19-2.3.84-2.12,2.5.13,1.18.07,2.39-1.37,2.87Z" />
      <path class="cls-7"
        d="M491.47,590.7c-1.13.11-2.25.25-3.27-.44.46-.72.75-1.49.7-2.36-.09-.12-.11-.25-.06-.39.65.25,1.31.49,1.96.74-.85,1.11-.29,1.84.66,2.46Z" />
      <path class="cls-7" d="M492.63,376.63c.12,1.42-.27,2.66-1.26,3.71-.79-1.65-.96-3.08,1.26-3.71Z" />
      <path class="cls-7"
        d="M475.12,585.2c.71.38,1.43.76,2.14,1.14-1.87,1.01-3.02-.82-4.56-1.13.66-.03,1.33-.06,1.99-.09.13.09.27.12.42.09Z" />
      <path class="cls-7" d="M484.41,590.04c-1.66,0-3.3-.04-4.76-1,1.61.21,3.53-1.05,4.76,1Z" />
      <path class="cls-7" d="M493.69,372.08c.18,1.23-.11,2.33-.87,3.32-1.32-1.53-.34-2.45.87-3.32Z" />
      <path class="cls-7" d="M461.61,582.04c.57.3,1.13.6,1.7.9-1.26-.01-2.81.94-3.49-1.04.6.05,1.2.1,1.79.15Z" />
      <path class="cls-7" d="M474.05,588.23c-1.37.31-2.69.21-3.91-.55,1.43-.75,2.68-.12,3.91.55Z" />
      <path class="cls-7" d="M483,587.25c.74-.26,1.43-.21,2,.38-.87.94-1.54.81-2-.38Z" />
      <path class="cls-7" d="M497.25,356.66c.17.95.09,1.85-.64,2.58-1.01-1.16-.06-1.84.64-2.58Z" />
      <path class="cls-7" d="M504.09,330.15c.16,1.09-.28,1.98-.91,2.81-.12-1.07-.55-2.25.91-2.81Z" />
      <path class="cls-7"
        d="M468.87,584.4c.84.02,1.69.04,2.53.07,0,0,0-.01,0-.01.04.17.07.34.08.52-1.17,1.16-1.85.13-2.6-.57Z" />
      <path class="cls-5"
        d="M471.48,584.98c-.01-.18-.04-.35-.08-.52,1.13.08,2.38-.48,3.3.65-.66.03-1.33.06-1.99.09-.41-.07-.82-.15-1.23-.22Z" />
      <path class="cls-7" d="M466.29,587.01c-.98.19-1.89.06-2.67-.6.96-.09,1.96-.37,2.67.6Z" />
      <path class="cls-7" d="M479.76,586.68c.54-.25,1-.19,1.36.32-.69.9-1.06.45-1.36-.32Z" />
      <path class="cls-7" d="M467.59,587.44c-.29-.1-.58-.2-.87-.31.29.1.58.2.87.31Z" />
      <path class="cls-7" d="M475.32,588.6c-.37.26-.58.07-.73-.27.24.09.48.18.73.27Z" />
      <path class="cls-7" d="M441.76,575.42c.22.05.45.1.67.14-.3.31-.51.21-.67-.14Z" />
      <path class="cls-7" d="M464.34,583.2c.3.13.61.26.91.39-.3-.13-.61-.26-.91-.39Z" />
      <path class="cls-1"
        d="M495.29,419.26c.17,3.56-1.41,6.84-1.6,10.38-.12,2.27-1.9,3.51-4.37,3.07-2.72-.48-4.95-3.6-4.48-6.46.41-2.51,1.03-4.99,1.56-7.48,2.97-.03,5.98-.7,8.89.49Z" />
      <path class="cls-5"
        d="M495.29,419.26c-2.91-1.19-5.92-.52-8.89-.49.74-3.87,2.51-7.4,3.7-11.12.49-1.54.8-3.09.81-4.71,1.8,2.29,4.14,3.21,7.02,2.8.21,4.72-1.18,9.12-2.63,13.52Z" />
      <path class="cls-4"
        d="M497.92,405.74c-2.88.41-5.22-.5-7.02-2.8-1.08-2.97-1.22-5.75,1.99-7.53,2.52-1.4,4.98-1.19,7.04.97,2.41,2.53,1.58,6.25-2.01,9.36Z" />
      <path class="cls-8"
        d="M541.7,368.94c3.15.5,5.75-1.34,8.6-2.09,1.14-.3,2.29-.95,3.26.15.95,1.08.33,2.2-.18,3.28-5.16,1.28-9.81,4.18-15.21,4.76-1.38.15-2.75.31-4.13.32-1.34-1.04.08-2.04.04-3.06,2.79-.56,5.17-2.04,7.63-3.35Z" />
      <path class="cls-4"
        d="M504.94,380.26c.05,2.58-2.22,5.13-4.65,5.22-2.57.09-5.09-2.25-5.11-4.76-.02-2.61,2.47-5.17,5.11-5.27,2.34-.08,4.59,2.24,4.65,4.81Z" />
      <path class="cls-4"
        d="M517.33,324.33c-.35,1.93-1.76,3.19-4.07,3.27-2.28.08-4.29-2.05-4.27-4.32.01-2.2,2-4.04,4.2-3.88,2.15.16,4.25,2.43,4.15,4.93Z" />
      <path class="cls-15"
        d="M534.07,372.3c.05,1.02-1.37,2.03-.04,3.06-3.28,1.41-6.72.39-10.07.64-1.97.14-3.97.03-5.97-.33,5.36-1.12,10.72-2.25,16.08-3.37Z" />
      <path class="cls-7"
        d="M508.02,349.69c-1.65-.19-2.81-1.03-2.78-2.84.03-1.75.75-3.28,2.74-3.35,1.81-.07,3.16.99,3.3,2.84.15,2.09-1.29,3.01-3.25,3.35Z" />
      <path class="cls-4"
        d="M505.39,360.18c1.67.16,3.21.71,3.17,2.73-.03,1.68-1.13,2.7-2.87,2.8-1.8.1-2.78-.89-2.94-2.61-.18-1.83.86-2.72,2.64-2.92Z" />
      <path class="cls-5"
        d="M505.98,421.8c1.6-.16,2.68.99,2.64,2.6-.04,1.63-1.04,3.19-2.96,3.16-1.78-.03-3.04-1.3-3.14-3.03-.12-1.99,1.32-2.72,3.47-2.74Z" />
      <path class="cls-5"
        d="M472.09,606.38c7.72-.49,15.44-.99,23.16-1.48.12.55.69,1.28-.41,1.43-.73.1-1.49.08-2.23.03-2.12-.12-2.51,1.87-2.64,2.98-.18,1.55,1.58.86,2.47.87,5.21.08,10.43.03,15.64.05.92,0,1.94-.28,2.69.59-20.07.03-40.15.05-60.22.07-.64,0-1.27-.15-1.91-.24.63-1.36,1.22-2.68,3.21-1.97,1.24.44,1.92-.38,2.27-1.5.38-.02.77-.04,1.15-.06,5.66,1.11,11.23.02,16.81-.75Z" />
      <path class="cls-1"
        d="M454.13,607.19c-.35,1.12-1.03,1.94-2.27,1.5-1.99-.71-2.57.61-3.21,1.97-10,.01-20,.03-30,.05-.73-.66-1.45-.66-2.18,0-2.07,0-4.15,0-6.22.01-.3-.08-.6-.17-.9-.25-4.5-.27-8.97-.7-12.79-3.47,13.82,1.49,27.68.45,41.52.44,5.34,0,10.69-.53,16.06-.25Z" />
      <path class="cls-5" d="M416.47,610.71c.73-.66,1.46-.66,2.18,0-.73,0-1.45,0-2.18,0Z" />
      <path class="cls-5" d="M409.35,610.47c.3.08.6.17.9.25-.3-.08-.6-.17-.9-.25Z" />
      <path class="cls-5" d="M496.88,604.93c2.85-.94,5.82-1.06,8.78-1.19-2.65,2.4-5.82,1.05-8.78,1.19Z" />
      <path class="cls-5" d="M506.89,603.6c.42-.37.88-.36,1.36-.14-.36,1-.8,1.14-1.36.14Z" />
      <path class="cls-5" d="M510.84,603.29c.84-.34,1.69-.34,2.56-.17-.8.92-1.66.86-2.56.17Z" />
      <path class="cls-15"
        d="M564.91,534.08c.25-.55.49-1.1.74-1.64,7.57-1.23,14.91-3.38,22.19-5.77,1-.33,2.04-.54,3.06-.8,2.43,2.21,2.34,5.41,3.04,8.23,2.11,8.49,4.11,17.02,4.63,25.8.33,5.59-2.51,9.72-6.84,12.7-5.51,3.79-11.9,5.61-18.3,7.34-4.85,1.31-9.69,2.68-14.52,4.06-.84.24-1.6.69-1.64,1.74-1.71.59-3.48.7-5.27.67-1.02-.02-2.19-.25-2.55,1.19-1.47.02-2.95.03-4.43.05-.86-1.95-.24-2.99,1.9-3.22,5.15-.56,10-2.26,14.75-4.2,7.66-3.14,9.73-7.6,8.22-15.84-1.85-10.07-3.33-20.21-4.98-30.32Z" />
      <path class="cls-2"
        d="M549.44,587.61c.36-1.44,1.54-1.21,2.55-1.19,1.79.03,3.56-.07,5.27-.67,3.84.17,7.66-.13,11.5-.6-2.59,1.69-5.65,1.94-8.39,3.09-1.46.18-2.91.35-4.36.53.07-.47,1.05-1.25-.23-1.29-2.11-.08-4.23.07-6.34.13Z" />
      <path class="cls-1" d="M472.09,606.38c-5.58.77-11.15,1.86-16.81.75,5.6-.27,11.18-1.18,16.81-.75Z" />
      <path class="cls-7"
        d="M539.24,590.87c-3.03.38-6.06.77-9.09,1.15-.21.04-.42.08-.64.11-1.92.04-3.84.09-5.76.13-8.76-.3-17.55.17-26.29-.77-1.37-.15-2.72-.46-4.09-.69.79-.89,1.68-.41,2.6-.29,1.65.22,3.34.47,4.98.32,2.64-.23.64-1.11.14-1.75,11.54.76,23.11.36,34.66.6,1.22.03,2.6,0,3.49,1.18ZM505.7,590.74c.07-.05.14-.11.21-.16-.06-.06-.12-.13-.18-.19-.09.09-.18.17-.27.26.08.03.16.06.24.09Z" />
      <path class="cls-10"
        d="M501.09,589.09c.5.64,2.5,1.52-.14,1.75-1.64.14-3.33-.1-4.98-.32-.93-.13-1.81-.6-2.6.29-.22.01-.44.03-.66.04-.17-.1-.35-.11-.53-.03-.24-.04-.48-.08-.72-.12-.95-.62-1.51-1.35-.66-2.46.64.08,1.28.15,1.92.23,1.19,1.38,2.49,1.55,3.92.38.64-.03,1.29-.07,1.93-.1.84.12,1.68.24,2.51.35Z" />
      <path class="cls-8" d="M523.75,592.27c1.92-.04,3.84-.09,5.76-.13-1.9,1.1-3.82.91-5.76.13Z" />
      <path class="cls-7" d="M492.19,590.82c.18-.08.35-.07.53.03-.2.44-.37.37-.53-.03Z" />
      <path class="cls-5"
        d="M501.09,589.09c-.84-.12-1.68-.24-2.51-.35,2.59-.94,5.32-.67,7.89-.33,12.15,1.58,24.26-.48,36.39-.2.71.02,1.44-.36,2.16-.55,1.48-.02,2.95-.03,4.43-.05,2.11-.06,4.23-.2,6.34-.13,1.28.05.3.83.23,1.29-5.56.93-11.08,2.2-16.77,2.11-.89-1.18-2.27-1.16-3.49-1.18-11.55-.24-23.12.16-34.66-.6Z" />
      <path class="cls-6"
        d="M521.86,579.11c-14.07.06-26.23-8.12-31.44-21.07-.94-2.33-1.22-4.54.28-6.74,1.28-1.87,3.06-2.7,5.28-2.34,2.35.38,3.75,1.89,4.47,4.13,1.84,5.66,5.32,10.04,10.59,12.8,9.88,5.18,25.98,3.91,32.13-10.87.49-1.18,1.19-2.29,1.91-3.36,1.78-2.63,4.19-3.36,6.62-2.08,3.11,1.64,4.3,4.14,3.03,7.19-5,12.06-13.51,19.9-26.77,21.9-1.06.16-2.12.34-3.19.41-.96.07-1.93.01-2.9.01Z" />
      <path class="cls-1"
        d="M448.96,551.37c-.04-.38-.08-.76-.11-1.14-.15-.3-.3-.6-.46-.9.04-.6.08-1.2.11-1.8,1.85-4.08,2.28-8.55,3.62-12.78.64-.86,1.28-1.72,1.91-2.58.28-.18.56-.35.84-.53.36-.04.73-.08,1.09-.12.43-.03.86-.06,1.29-.08.64,0,1.29,0,1.93.01.22.02.43.04.65.07,1.22.56,2.37,1.29,3.75,1.38.45.21.91.42,1.36.64,0,0,0-.02,0-.02.23.19.47.38.7.57.37.05.73.1,1.1.15.69.91,1.65,1.22,2.74,1.22.44.19.88.37,1.32.56.48.7,1.2.68,1.93.67.65.21,1.3.41,1.95.62.3.49.74.68,1.3.62,1.25.21,2.03,1.06,2.75,1.99-.06.21-.06.42,0,.63-5.76,5.13-11.75,9.99-18.09,14.35-4.58,3.15-6.35,2.59-11-2.13-.23-.46-.46-.92-.68-1.38Z" />
      <path class="cls-1"
        d="M455.34,565.82c-.2,2.46-1.61,3.84-3.82,4.16-2.3.33-4.1-1.76-4-4.37.09-2.42,1.49-3.78,3.83-3.83,2.65-.06,3.65,1.78,3.99,4.04Z" />
      <path class="cls-5"
        d="M452.12,534.75c-1.34,4.22-1.77,8.7-3.62,12.78-.61.06-1.22.11-1.83.17,1.01-5.01,1.99-10.03,3.64-14.88.67.58.41,2.04,1.81,1.93Z" />
      <path class="cls-5"
        d="M462.4,563.2c3.22-.24,3.53,1.59,3.62,3.09.09,1.43-.76,2.67-2.53,2.65-1.98-.02-3.45-1.16-3.47-2.97-.02-1.69,1.57-2.6,2.38-2.77Z" />
      <path class="cls-5"
        d="M492.73,588.47c-.64-.08-1.28-.15-1.92-.23-.65-.25-1.31-.49-1.96-.74,2.76-1.34,5.2.17,7.73.88-1.28.03-2.57.05-3.85.08Z" />
      <path class="cls-7" d="M492.73,588.47c1.28-.03,2.57-.05,3.85-.08.06.15.08.3.07.46-1.43,1.18-2.74,1-3.92-.38Z" />
      <path class="cls-5" d="M445.44,552.74c.06-1.33.26-2.62.96-3.79.8,1.55,1.07,2.96-.96,3.79Z" />
      <path class="cls-5" d="M442.88,563.78c-.02-1.57.41-3.05.93-4.51,1.03,1.78.61,3.26-.93,4.51Z" />
      <path class="cls-5" d="M444.43,557.34c-.26-1.18.11-2.22.66-3.24.73,1.27,1.23,2.5-.66,3.24Z" />
      <path class="cls-5" d="M469.48,535.45c-1.1,0-2.05-.31-2.74-1.22,1.2-.24,2.25-.13,2.74,1.22Z" />
      <path class="cls-5" d="M472.74,536.68c-.72.01-1.45.03-1.93-.67,1.08-1.02,1.68-.69,1.93.67Z" />
      <path class="cls-5" d="M475.98,537.92c-.56.05-1-.14-1.3-.62.99-.95,1.15-.18,1.3.62Z" />
      <path class="cls-5" d="M457.25,531.43c-.43.03-.86.06-1.29.08.39-.63.82-.69,1.29-.08Z" />
      <path class="cls-5" d="M448.96,551.37c.23.46.45.92.68,1.38-.7-.23-.76-.77-.68-1.38Z" />
      <path class="cls-5" d="M464.94,533.53c-.45-.21-.91-.43-1.36-.64.59-.08,1.11-.01,1.36.64Z" />
      <path class="cls-5" d="M459.83,531.51c-.22-.02-.43-.04-.65-.07.25-.35.47-.29.65.07Z" />
      <path class="cls-5" d="M465.64,534.08c-.23-.19-.47-.38-.7-.57.23.19.47.38.7.57Z" />
      <path class="cls-5" d="M448.38,549.33c.15.3.3.6.46.9-.15-.3-.3-.6-.46-.9Z" />
      <path class="cls-5" d="M478.73,540.54c-.06-.21-.06-.42,0-.63.06.15.15.29.18.44.01.05-.12.12-.18.19Z" />
      <path class="cls-5" d="M454.87,531.64c-.28.18-.56.35-.84.53.28-.18.56-.35.84-.53Z" />
      <path class="cls-10"
        d="M486.01,459.16c5.47.12,10.59,5.1,10.48,10.2-.13,6.01-5.11,11.26-10.63,11.21-6.18-.06-10.93-5.19-10.73-11.59.16-5.13,5.48-9.93,10.88-9.82Z" />
      <path class="cls-4"
        d="M474.38,497.31c-2.64.05-4.8-2.15-4.84-4.93-.04-2.51,2.11-4.7,4.65-4.73,2.69-.03,4.79,2.08,4.85,4.88.05,2.46-2.16,4.74-4.65,4.78Z" />
      <path class="cls-10"
        d="M503.19,493.82c-.13,1.94-1.39,3.42-4,3.41-2.45-.01-3.81-1.46-3.81-3.81,0-2.51,1.44-3.98,4.05-3.97,2.45.01,3.79,1.22,3.76,4.37Z" />
      <path class="cls-10"
        d="M569.27,469.21c.07,5.87-5.02,11.23-10.83,11.4-5.7.17-10.75-4.9-10.82-10.85-.06-5.16,5.22-10.37,10.63-10.5,5.66-.13,10.96,4.66,11.02,9.95Z" />
      <path class="cls-4"
        d="M551.15,492.3c-.02,3.03-2.08,5.11-5.03,5.08-2.85-.03-5.05-2.29-5.03-5.16.02-2.65,2.35-4.86,5.01-4.77,2.74.1,5.06,2.34,5.05,4.85Z" />
      <path class="cls-4"
        d="M575.03,493.07c-.14,2.69-1.5,4.11-4.07,4.08-2.43-.03-3.86-1.58-3.75-3.85.1-2.16,1.38-3.82,3.9-3.81,2.43.01,3.75,1.25,3.92,3.58Z" />
      <path class="cls-10"
        d="M505.7,590.74c-.08-.03-.16-.06-.24-.09.09-.09.18-.17.27-.26.06.06.12.13.18.19-.07.05-.14.11-.21.16Z" />
    </g>
  </g>
  <path class="cls-20"
    d="M762.17,657.51c21.05-10.13,26.09-16.66,27.01-21.65,2.86-15.61-33.14-24.16-61.41-46.98-27.12-21.89-38.4-25.28-44.18-41.82-.57-1.62-7.99-23.89,3.53-40.06" />
  <path class="cls-18"
    d="M718.34,451.92c-8.41-2.31-14.53-2.59-24.74-7.07-6.76-2.96-19.55-8.56-19.14-13.84.41-5.34,14.21-8.98,44.47-13.55,18.92-2.85,46.12-6.35,79.82-8.54" />
  <path class="cls-19"
    d="M706.11,495.15c3.36-1.54,8.56-3.86,15.02-6.41,28.98-11.44,44.21-12.19,44.62-16.79.26-2.96-5.58-7.78-35.34-15.68" />
</svg>